<?xml version="1.0" encoding="UTF-8" standalone="no" ?>
<!DOCTYPE svg PUBLIC "-//W3C//DTD SVG 1.1//EN" "http://www.w3.org/Graphics/SVG/1.1/DTD/svg11.dtd">
<svg xmlns="http://www.w3.org/2000/svg" xmlns:xlink="http://www.w3.org/1999/xlink" version="1.1" width="1080" height="1080" viewBox="0 0 1080 1080" xml:space="preserve">
<desc>Created with Fabric.js 5.2.4</desc>
<defs>
</defs>
<g transform="matrix(1 0 0 1 540 540)" id="06b3f649-cd05-4256-9fe7-db948a0e0bdc"  >
<rect style="stroke: none; stroke-width: 1; stroke-dasharray: none; stroke-linecap: butt; stroke-dashoffset: 0; stroke-linejoin: miter; stroke-miterlimit: 4; fill: rgb(255,255,255); fill-rule: nonzero; opacity: 1; visibility: hidden;" vector-effect="non-scaling-stroke"  x="-540" y="-540" rx="0" ry="0" width="1080" height="1080" />
</g>
<g transform="matrix(1 0 0 1 540 540)" id="2e70579c-cae8-492a-a1a7-4c55253eb1e3"  >
</g>
<g transform="matrix(1.39 0 0 1.39 540 523.69)"  >
<g style="" vector-effect="non-scaling-stroke"   >
		<g transform="matrix(1 0 0 1 0 0)"  >
<rect style="stroke: none; stroke-width: 1; stroke-dasharray: none; stroke-linecap: butt; stroke-dashoffset: 0; stroke-linejoin: miter; stroke-miterlimit: 4; fill: rgb(255,255,255); fill-rule: nonzero; opacity: 1; visibility: hidden;" vector-effect="non-scaling-stroke"  x="-540" y="-540" rx="0" ry="0" width="1080" height="1080" />
</g>
		<g transform="matrix(9.24 0 0 9.24 0 0)"  >
<circle style="stroke: rgb(0,0,0); stroke-width: 0; stroke-dasharray: none; stroke-linecap: butt; stroke-dashoffset: 0; stroke-linejoin: miter; stroke-miterlimit: 4; fill: rgb(219,28,28); fill-rule: nonzero; opacity: 1;" vector-effect="non-scaling-stroke"  cx="0" cy="0" r="35" />
</g>
		<g transform="matrix(1.42 0 0 1.42 0 0)"  >
<path style="stroke: rgb(0,0,0); stroke-width: 0; stroke-dasharray: none; stroke-linecap: butt; stroke-dashoffset: 0; stroke-linejoin: miter; stroke-miterlimit: 4; fill: rgb(0,0,0); fill-rule: nonzero; opacity: 1;" vector-effect="non-scaling-stroke"  transform=" translate(-256, -256)" d="M 256 48 C 370.87522796480505 48 464 141.1247720351949 464 255.99999999999994 C 464 370.875227964805 370.8752279648051 463.99999999999994 256.00000000000006 464 C 141.12477203519495 464 48 370.87522796480505 48 256 C 48 141.12477203519495 141.12477203519495 48 256 48 z M 256 512 C 397.3848959566831 512 512 397.3848959566831 512 256 C 512 114.61510404331688 397.3848959566831 0 256 0 C 114.61510404331688 0 0 114.61510404331688 0 256 C 0 397.3848959566831 114.61510404331688 512 256 512 z M 328.4 393.5 C 338.09999999999997 384.5 338.59999999999997 369.3 329.59999999999997 359.6 C 315.3 344.3 290.6 328 256 328 C 221.39999999999998 328 196.7 344.3 182.5 359.6 C 173.5 369.3 174 384.5 183.7 393.5 C 193.39999999999998 402.5 208.6 402 217.6 392.3 C 225 384.40000000000003 237.6 375.90000000000003 256.1 375.90000000000003 C 274.6 375.90000000000003 287.20000000000005 384.40000000000003 294.6 392.3 C 303.6 402 318.8 402.5 328.5 393.5 z M 176.4 272 C 194.1 272 208.4 257.7 208.4 240 C 208.4 238.5 208.3 237 208.1 235.6 L 219 239.2 C 227.4 242 236.4 237.5 239.2 229.1 C 241.99999999999997 220.7 237.5 211.7 229.1 208.9 L 133.1 176.9 C 124.69999999999999 174.1 115.69999999999999 178.6 112.89999999999999 187 C 110.1 195.4 114.6 204.4 122.99999999999999 207.2 L 153.7 217.39999999999998 C 147.89999999999998 223.2 144.39999999999998 231.2 144.39999999999998 239.99999999999997 C 144.39999999999998 257.7 158.7 272 176.39999999999998 272 z M 368.4 240 C 368.4 231.1 364.79999999999995 223 358.9 217.2 L 389.09999999999997 207.1 C 397.49999999999994 204.29999999999998 401.99999999999994 195.2 399.2 186.9 C 396.40000000000003 178.60000000000002 387.3 174 379 176.8 L 283 208.8 C 274.6 211.60000000000002 270.1 220.70000000000002 272.9 229 C 275.69999999999993 237.29999999999998 284.79999999999995 241.9 293.09999999999997 239.1 L 304.79999999999995 235.2 C 304.59999999999997 236.7 304.49999999999994 238.29999999999998 304.49999999999994 239.89999999999998 C 304.49999999999994 257.59999999999997 318.79999999999995 271.9 336.49999999999994 271.9 C 354.19999999999993 271.9 368.49999999999994 257.59999999999997 368.49999999999994 239.89999999999998 z" stroke-linecap="round" />
</g>
</g>
</g>
</svg>