<?xml version="1.0" encoding="UTF-8" standalone="no" ?>
<!DOCTYPE svg PUBLIC "-//W3C//DTD SVG 1.1//EN" "http://www.w3.org/Graphics/SVG/1.1/DTD/svg11.dtd">
<svg xmlns="http://www.w3.org/2000/svg" xmlns:xlink="http://www.w3.org/1999/xlink" version="1.1" width="1080" height="1080" viewBox="0 0 1080 1080" xml:space="preserve">
<desc>Created with Fabric.js 5.2.4</desc>
<defs>
</defs>
<g transform="matrix(1 0 0 1 540 540)" id="fcaa6b97-36b5-4ce0-a948-c46cd5e468d8"  >
<rect style="stroke: none; stroke-width: 1; stroke-dasharray: none; stroke-linecap: butt; stroke-dashoffset: 0; stroke-linejoin: miter; stroke-miterlimit: 4; fill: rgb(255,255,255); fill-rule: nonzero; opacity: 1; visibility: hidden;" vector-effect="non-scaling-stroke"  x="-540" y="-540" rx="0" ry="0" width="1080" height="1080" />
</g>
<g transform="matrix(1 0 0 1 540 540)" id="24163844-4024-4f21-9db9-d1d1944bef29"  >
</g>
<g transform="matrix(58.99 0 0 58.99 570.36 540)"  >
<g style="" vector-effect="non-scaling-stroke"   >
		<g transform="matrix(1 0 0 1 -1 -1)"  >
<path style="stroke: none; stroke-width: 1; stroke-dasharray: none; stroke-linecap: butt; stroke-dashoffset: 0; stroke-linejoin: miter; stroke-miterlimit: 4; fill: rgb(33,33,33); fill-rule: nonzero; opacity: 1;" vector-effect="non-scaling-stroke"  transform=" translate(-7, -7)" d="M 7 13 C 7.08516 13 7.1699 12.9982 7.25419 12.9947 C 7.0895600000000005 12.527 7 12.024 7 11.5 C 7 11.1557 7.03867 10.8204 7.11191 10.4982 C 7.07476 10.499400000000001 7.03746 10.5 7.00003 10.5 C 5.9634 10.5 5.03151 10.0487 4.391349999999999 9.33346 C 4.207189999999999 9.127690000000001 4.2246999999999995 8.8116 4.430459999999999 8.62743 C 4.636229999999999 8.44327 4.952319999999999 8.46078 5.136489999999999 8.666540000000001 C 5.594969999999999 9.1788 6.259659999999999 9.500000000000002 7.000029999999999 9.500000000000002 C 7.168499999999999 9.500000000000002 7.333059999999999 9.483370000000003 7.492159999999999 9.451640000000001 C 8.23753 7.996170000000001 9.752429999999999 7.000000000000002 11.5 7.000000000000002 C 12.024000000000001 7.000000000000002 12.527 7.089560000000001 12.9947 7.254190000000002 C 12.9982 7.169900000000002 13 7.085160000000002 13 7.000000000000002 C 13 3.686290000000002 10.3137 1.0000000000000018 7 1.0000000000000018 C 3.68629 1.0000000000000018 1 3.686290000000002 1 7.000000000000002 C 1 10.3137 3.68629 13.000000000000002 7 13.000000000000002 z M 5.25003 6.75 C 4.83582 6.75 4.50003 6.41421 4.50003 6 C 4.50003 5.58579 4.83582 5.25 5.25003 5.25 C 5.6642399999999995 5.25 6.00003 5.58579 6.00003 6 C 6.00003 6.41421 5.6642399999999995 6.75 5.25003 6.75 z M 8.750029999999999 6.75 C 8.335819999999998 6.75 8.000029999999999 6.41421 8.000029999999999 6 C 8.000029999999999 5.58579 8.335819999999998 5.25 8.750029999999999 5.25 C 9.16424 5.25 9.500029999999999 5.58579 9.500029999999999 6 C 9.500029999999999 6.41421 9.16424 6.75 8.750029999999999 6.75 z" stroke-linecap="round" />
</g>
		<g transform="matrix(1 0 0 1 3.5 3.5)"  >
<path style="stroke: none; stroke-width: 1; stroke-dasharray: none; stroke-linecap: butt; stroke-dashoffset: 0; stroke-linejoin: miter; stroke-miterlimit: 4; fill: rgb(33,33,33); fill-rule: nonzero; opacity: 1;" vector-effect="non-scaling-stroke"  transform=" translate(-11.5, -11.5)" d="M 15 11.5 C 15 13.433 13.433 15 11.5 15 C 9.567 15 8 13.433 8 11.5 C 8 9.567 9.567 8 11.5 8 C 13.433 8 15 9.567 15 11.5 z M 12 9.5 C 12 9.22386 11.7761 9 11.5 9 C 11.2239 9 11 9.22386 11 9.5 L 11 11 L 9.5 11 C 9.22386 11 9 11.2239 9 11.5 C 9 11.7761 9.22386 12 9.5 12 L 11 12 L 11 13.5 C 11 13.7761 11.2239 14 11.5 14 C 11.7761 14 12 13.7761 12 13.5 L 12 12 L 13.5 12 C 13.7761 12 14 11.7761 14 11.5 C 14 11.2239 13.7761 11 13.5 11 L 12 11 z" stroke-linecap="round" />
</g>
</g>
</g>
</svg>