<?xml version="1.0" encoding="UTF-8" standalone="no" ?>
<!DOCTYPE svg PUBLIC "-//W3C//DTD SVG 1.1//EN" "http://www.w3.org/Graphics/SVG/1.1/DTD/svg11.dtd">
<svg xmlns="http://www.w3.org/2000/svg" xmlns:xlink="http://www.w3.org/1999/xlink" version="1.1" width="1080" height="1080" viewBox="0 0 1080 1080" xml:space="preserve">
<desc>Created with Fabric.js 5.2.4</desc>
<defs>
</defs>
<g transform="matrix(1 0 0 1 540 540)" id="a4a15f05-74a7-4c58-9690-8d9f957c579c"  >
<rect style="stroke: none; stroke-width: 1; stroke-dasharray: none; stroke-linecap: butt; stroke-dashoffset: 0; stroke-linejoin: miter; stroke-miterlimit: 4; fill: rgb(255,255,255); fill-rule: nonzero; opacity: 1; visibility: hidden;" vector-effect="non-scaling-stroke"  x="-540" y="-540" rx="0" ry="0" width="1080" height="1080" />
</g>
<g transform="matrix(1 0 0 1 540 540)" id="c9146281-1584-4814-b9ad-b213b5657019"  >
</g>
<g transform="matrix(1.42 0 0 1.42 510.77 540)"  >
<g style="" vector-effect="non-scaling-stroke"   >
		<g transform="matrix(1 0 0 1 0 0)"  >
<rect style="stroke: none; stroke-width: 1; stroke-dasharray: none; stroke-linecap: butt; stroke-dashoffset: 0; stroke-linejoin: miter; stroke-miterlimit: 4; fill: rgb(255,255,255); fill-rule: nonzero; opacity: 1; visibility: hidden;" vector-effect="non-scaling-stroke"  x="-540" y="-540" rx="0" ry="0" width="1080" height="1080" />
</g>
		<g transform="matrix(10.19 0 0 10.19 15.82 0)"  >
<circle style="stroke: rgb(0,0,0); stroke-width: 0; stroke-dasharray: none; stroke-linecap: butt; stroke-dashoffset: 0; stroke-linejoin: miter; stroke-miterlimit: 4; fill: rgb(228,118,30); fill-rule: nonzero; opacity: 1;" vector-effect="non-scaling-stroke"  cx="0" cy="0" r="35" />
</g>
		<g transform="matrix(45.05 0 0 45.05 -92.32 -67.58)"  >
<path style="stroke: none; stroke-width: 1; stroke-dasharray: none; stroke-linecap: butt; stroke-dashoffset: 0; stroke-linejoin: miter; stroke-miterlimit: 4; fill: rgb(33,33,33); fill-rule: nonzero; opacity: 1;" vector-effect="non-scaling-stroke"  transform=" translate(-7.5, -8.5)" d="M 7.5 9.5 C 8.05228 9.5 8.5 9.05228 8.5 8.5 C 8.5 7.94772 8.05228 7.5 7.5 7.5 C 6.94772 7.5 6.5 7.94772 6.5 8.5 C 6.5 9.05228 6.94772 9.5 7.5 9.5 z" stroke-linecap="round" />
</g>
		<g transform="matrix(45.05 0 0 45.05 132.94 -67.58)"  >
<path style="stroke: none; stroke-width: 1; stroke-dasharray: none; stroke-linecap: butt; stroke-dashoffset: 0; stroke-linejoin: miter; stroke-miterlimit: 4; fill: rgb(33,33,33); fill-rule: nonzero; opacity: 1;" vector-effect="non-scaling-stroke"  transform=" translate(-12.5, -8.5)" d="M 13.5 8.5 C 13.5 9.05228 13.0523 9.5 12.5 9.5 C 11.9477 9.5 11.5 9.05228 11.5 8.5 C 11.5 7.94772 11.9477 7.5 12.5 7.5 C 13.0523 7.5 13.5 7.94772 13.5 8.5 z" stroke-linecap="round" />
</g>
		<g transform="matrix(45.05 0 0 45.05 20.31 112.63)"  >
<path style="stroke: none; stroke-width: 1; stroke-dasharray: none; stroke-linecap: butt; stroke-dashoffset: 0; stroke-linejoin: miter; stroke-miterlimit: 4; fill: rgb(33,33,33); fill-rule: nonzero; opacity: 1;" vector-effect="non-scaling-stroke"  transform=" translate(-10, -12.5)" d="M 6.5 12 C 6.22386 12 6 12.2239 6 12.5 C 6 12.7761 6.22386 13 6.5 13 L 13.5 13 C 13.7761 13 14 12.7761 14 12.5 C 14 12.2239 13.7761 12 13.5 12 z" stroke-linecap="round" />
</g>
		<g transform="matrix(45.05 0 0 45.05 20.31 0)"  >
<path style="stroke: none; stroke-width: 1; stroke-dasharray: none; stroke-linecap: butt; stroke-dashoffset: 0; stroke-linejoin: miter; stroke-miterlimit: 4; fill: rgb(33,33,33); fill-rule: nonzero; opacity: 1;" vector-effect="non-scaling-stroke"  transform=" translate(-10, -10)" d="M 2 10 C 2 5.58172 5.58172 2 10 2 C 14.4183 2 18 5.58172 18 10 C 18 14.4183 14.4183 18 10 18 C 5.58172 18 2 14.4183 2 10 z M 10 3 C 6.13401 3 3 6.13401 3 10 C 3 13.866 6.13401 17 10 17 C 13.866 17 17 13.866 17 10 C 17 6.13401 13.866 3 10 3 z" stroke-linecap="round" />
</g>
</g>
</g>
</svg>