<?xml version="1.0" encoding="UTF-8" standalone="no" ?>
<!DOCTYPE svg PUBLIC "-//W3C//DTD SVG 1.1//EN" "http://www.w3.org/Graphics/SVG/1.1/DTD/svg11.dtd">
<svg xmlns="http://www.w3.org/2000/svg" xmlns:xlink="http://www.w3.org/1999/xlink" version="1.1" width="1080" height="1080" viewBox="0 0 1080 1080" xml:space="preserve">
<desc>Created with Fabric.js 5.2.4</desc>
<defs>
</defs>
<g transform="matrix(1 0 0 1 540 540)" id="e5217ed9-4ad1-41fa-a70c-f2153f136896"  >
<rect style="stroke: none; stroke-width: 1; stroke-dasharray: none; stroke-linecap: butt; stroke-dashoffset: 0; stroke-linejoin: miter; stroke-miterlimit: 4; fill: rgb(255,255,255); fill-rule: nonzero; opacity: 1; visibility: hidden;" vector-effect="non-scaling-stroke"  x="-540" y="-540" rx="0" ry="0" width="1080" height="1080" />
</g>
<g transform="matrix(1 0 0 1 540 540)" id="1466d35b-e092-480c-84ec-4932b40db140"  >
</g>
<g transform="matrix(1.36 0 0 1.36 508.06 540)"  >
<g style="" vector-effect="non-scaling-stroke"   >
		<g transform="matrix(1 0 0 1 0 0)"  >
<rect style="stroke: none; stroke-width: 1; stroke-dasharray: none; stroke-linecap: butt; stroke-dashoffset: 0; stroke-linejoin: miter; stroke-miterlimit: 4; fill: rgb(255,255,255); fill-rule: nonzero; opacity: 1; visibility: hidden;" vector-effect="non-scaling-stroke"  x="-540" y="-540" rx="0" ry="0" width="1080" height="1080" />
</g>
		<g transform="matrix(10.4 0 0 10.4 15.82 0)"  >
<circle style="stroke: rgb(0,0,0); stroke-width: 0; stroke-dasharray: none; stroke-linecap: butt; stroke-dashoffset: 0; stroke-linejoin: miter; stroke-miterlimit: 4; fill: rgb(52,232,38); fill-rule: nonzero; opacity: 1;" vector-effect="non-scaling-stroke"  cx="0" cy="0" r="35" />
</g>
		<g transform="matrix(1.46 0 0 1.46 25.53 0)"  >
<path style="stroke: rgb(0,0,0); stroke-width: 0; stroke-dasharray: none; stroke-linecap: butt; stroke-dashoffset: 0; stroke-linejoin: miter; stroke-miterlimit: 4; fill: rgb(0,0,0); fill-rule: nonzero; opacity: 1;" vector-effect="non-scaling-stroke"  transform=" translate(-256, -256)" d="M 256 48 C 370.87522796480505 48 464 141.1247720351949 464 255.99999999999994 C 464 370.875227964805 370.8752279648051 463.99999999999994 256.00000000000006 464 C 141.12477203519495 464 48 370.87522796480505 48 256 C 48 141.12477203519495 141.12477203519495 48 256 48 z M 256 512 C 397.3848959566831 512 512 397.3848959566831 512 256 C 512 114.61510404331688 397.3848959566831 0 256 0 C 114.61510404331688 0 0 114.61510404331688 0 256 C 0 397.3848959566831 114.61510404331688 512 256 512 z M 183.2 132.6 C 181.89999999999998 129.79999999999998 179.1 128 176 128 C 172.9 128 170.1 129.8 168.8 132.6 L 152.20000000000002 167.3 L 114.10000000000002 172.3 C 111.00000000000003 172.70000000000002 108.50000000000003 174.8 107.50000000000003 177.8 C 106.50000000000003 180.8 107.40000000000003 184 109.60000000000002 186.10000000000002 L 137.50000000000003 212.60000000000002 L 130.50000000000003 250.40000000000003 C 129.90000000000003 253.40000000000003 131.20000000000002 256.50000000000006 133.70000000000002 258.3 C 136.20000000000002 260.09999999999997 139.50000000000003 260.3 142.20000000000002 258.90000000000003 L 176 240.5 L 209.8 258.8 C 212.5 260.3 215.8 260.1 218.3 258.2 C 220.8 256.29999999999995 222 253.29999999999998 221.5 250.29999999999998 L 214.5 212.5 L 242.4 186 C 244.6 183.9 245.5 180.7 244.5 177.7 C 243.5 174.7 241 172.6 237.9 172.2 L 199.8 167.2 L 183.20000000000002 132.5 z M 343.2 132.6 C 341.9 129.79999999999998 339.09999999999997 128 336 128 C 332.90000000000003 128 330.1 129.8 328.8 132.6 L 312.2 167.3 L 274.09999999999997 172.3 C 270.99999999999994 172.70000000000002 268.49999999999994 174.8 267.49999999999994 177.8 C 266.49999999999994 180.8 267.3999999999999 184 269.59999999999997 186.10000000000002 L 297.49999999999994 212.60000000000002 L 290.49999999999994 250.40000000000003 C 289.8999999999999 253.40000000000003 291.19999999999993 256.50000000000006 293.69999999999993 258.3 C 296.19999999999993 260.09999999999997 299.49999999999994 260.3 302.19999999999993 258.90000000000003 L 336 240.5 L 369.8 258.8 C 372.5 260.3 375.8 260.1 378.3 258.2 C 380.8 256.29999999999995 382 253.29999999999998 381.5 250.29999999999998 L 374.5 212.5 L 402.4 186 C 404.59999999999997 183.9 405.5 180.7 404.5 177.7 C 403.5 174.7 401 172.6 397.9 172.2 L 359.79999999999995 167.2 L 343.19999999999993 132.5 z M 349.5 308.4 C 320.6 315.2 289 318.9 255.9 318.9 C 222.8 318.9 191.2 315.2 162.3 308.4 C 143.60000000000002 304 126.4 320.4 136.8 336.5 C 161.4 374.6 205.5 400 255.9 400 C 306.3 400 350.4 374.6 375 336.5 C 385.4 320.4 368.2 304 349.5 308.4 z" stroke-linecap="round" />
</g>
</g>
</g>
</svg>