<?xml version="1.0" encoding="UTF-8" standalone="no" ?>
<!DOCTYPE svg PUBLIC "-//W3C//DTD SVG 1.1//EN" "http://www.w3.org/Graphics/SVG/1.1/DTD/svg11.dtd">
<svg xmlns="http://www.w3.org/2000/svg" xmlns:xlink="http://www.w3.org/1999/xlink" version="1.1" width="1080" height="1080" viewBox="0 0 1080 1080" xml:space="preserve">
<desc>Created with Fabric.js 5.2.4</desc>
<defs>
</defs>
<g transform="matrix(1 0 0 1 540 540)" id="11b6c0d2-a6fa-4865-b278-86df6a130558"  >
<rect style="stroke: none; stroke-width: 1; stroke-dasharray: none; stroke-linecap: butt; stroke-dashoffset: 0; stroke-linejoin: miter; stroke-miterlimit: 4; fill: rgb(255,255,255); fill-rule: nonzero; opacity: 1; visibility: hidden;" vector-effect="non-scaling-stroke"  x="-540" y="-540" rx="0" ry="0" width="1080" height="1080" />
</g>
<g transform="matrix(1 0 0 1 540 540)" id="f2ddb0d6-8a4b-4372-bf0d-1ab58d090236"  >
</g>
<g transform="matrix(1.06 0 0 1.06 927.2 144.12)"  >
<g style="" vector-effect="non-scaling-stroke"   >
		<g transform="matrix(1 0 0 1 -375.11 383.78)"  >
<rect style="stroke: none; stroke-width: 1; stroke-dasharray: none; stroke-linecap: butt; stroke-dashoffset: 0; stroke-linejoin: miter; stroke-miterlimit: 4; fill: rgb(255,255,255); fill-rule: nonzero; opacity: 1; visibility: hidden;" vector-effect="non-scaling-stroke"  x="-540" y="-540" rx="0" ry="0" width="1080" height="1080" />
</g>
		<g transform="matrix(1.53 0 0 1.53 -380.47 410.3)"  >
<rect style="stroke: none; stroke-width: 1; stroke-dasharray: none; stroke-linecap: butt; stroke-dashoffset: 0; stroke-linejoin: miter; stroke-miterlimit: 4; fill: rgb(255,255,255); fill-rule: nonzero; opacity: 1; visibility: hidden;" vector-effect="non-scaling-stroke"  x="-540" y="-540" rx="0" ry="0" width="1080" height="1080" />
</g>
		<g transform="matrix(2.46 0 0 2.46 0 0)"  >
<rect style="stroke: none; stroke-width: 1; stroke-dasharray: none; stroke-linecap: butt; stroke-dashoffset: 0; stroke-linejoin: miter; stroke-miterlimit: 4; fill: rgb(255,255,255); fill-rule: nonzero; opacity: 1; visibility: hidden;" vector-effect="non-scaling-stroke"  x="-540" y="-540" rx="0" ry="0" width="1080" height="1080" />
</g>
		<g transform="matrix(12.95 0 0 12.95 -367.07 367.06)"  >
<circle style="stroke: rgb(0,0,0); stroke-width: 0; stroke-dasharray: none; stroke-linecap: butt; stroke-dashoffset: 0; stroke-linejoin: miter; stroke-miterlimit: 4; fill: rgb(23,168,225); fill-rule: nonzero; opacity: 1;" vector-effect="non-scaling-stroke"  cx="0" cy="0" r="35" />
</g>
		<g transform="matrix(47.84 0 0 47.84 -368.22 373.95)"  >
<path style="stroke: rgb(0,0,0); stroke-width: 0; stroke-dasharray: none; stroke-linecap: butt; stroke-dashoffset: 0; stroke-linejoin: miter; stroke-miterlimit: 4; fill: rgb(0,0,0); fill-rule: nonzero; opacity: 1;" vector-effect="non-scaling-stroke"  transform=" translate(-12, -12)" d="M 14.36 14.23 C 12.98262656944193 15.340513839685183 11.01737343055807 15.340513839685183 9.64 14.23 C 9.21474074263029 13.876537760108294 8.583462239891709 13.93474074263029 8.23 14.360000000000001 C 7.8765377601082935 14.785259257369711 7.934740742630291 15.416537760108293 8.360000000000001 15.77 C 10.467723192658266 17.52951072395374 13.532276807341734 17.52951072395374 15.64 15.77 C 16.06525925736971 15.416537760108293 16.12346223989171 14.785259257369711 15.77 14.36 C 15.416537760108293 13.93474074263029 14.785259257369711 13.876537760108294 14.360000000000001 14.23 z M 9 11 C 9.552284749830793 11 10 10.552284749830793 10 10 C 10 9.447715250169207 9.552284749830793 9 9 9 C 8.447715250169207 9 8 9.447715250169207 8 10 C 8 10.552284749830793 8.447715250169207 11 9 11 z M 15 9 C 14.447715250169207 9 14 9.447715250169207 14 10 C 14 10.552284749830793 14.447715250169207 11 15 11 C 15.552284749830793 11 16 10.552284749830793 16 10 C 16 9.447715250169207 15.552284749830793 9 15 9 z M 12 2 C 6.477152501692066 2 2 6.477152501692066 2 12 C 2 17.522847498307932 6.477152501692066 22 12 22 C 17.522847498307932 22 22 17.522847498307932 22 12 C 22 6.477152501692066 17.522847498307932 2 12 2 z M 12 20 C 7.581722001353652 20 4 16.418277998646346 4 12 C 4 7.581722001353652 7.581722001353652 4 12 4 C 16.418277998646346 4 20 7.581722001353651 20 11.999999999999998 C 20 16.418277998646346 16.418277998646346 20 12 20 z" stroke-linecap="round" />
</g>
</g>
</g>
</svg>